<?xml version="1.0" encoding="UTF-8" standalone="no"?>
<svg
   xmlns:dc="http://purl.org/dc/elements/1.1/"
   xmlns:cc="http://creativecommons.org/ns#"
   xmlns:rdf="http://www.w3.org/1999/02/22-rdf-syntax-ns#"
   xmlns:svg="http://www.w3.org/2000/svg"
   xmlns="http://www.w3.org/2000/svg"
   xmlns:sodipodi="http://sodipodi.sourceforge.net/DTD/sodipodi-0.dtd"
   xmlns:inkscape="http://www.inkscape.org/namespaces/inkscape"
   inkscape:version="1.0 (4035a4fb49, 2020-05-01)"
   height="273.75"
   width="273.75"
   sodipodi:docname="logo.svg"
   id="svg885"
   version="1.1"
   viewBox="0 0 273.75 273.75">
  <metadata
     id="metadata891">
    <rdf:RDF>
      <cc:Work
         rdf:about="">
        <dc:format>image/svg+xml</dc:format>
        <dc:type
           rdf:resource="http://purl.org/dc/dcmitype/StillImage" />
        <dc:title>Emblem only</dc:title>
      </cc:Work>
    </rdf:RDF>
  </metadata>
  <defs
     id="defs889" />
  <sodipodi:namedview
     inkscape:current-layer="svg885"
     inkscape:window-maximized="1"
     inkscape:window-y="-8"
     inkscape:window-x="1912"
     inkscape:cy="143.88074"
     inkscape:cx="121.38808"
     inkscape:zoom="2.2214131"
     lock-margins="false"
     showgrid="false"
     id="namedview887"
     inkscape:window-height="1027"
     inkscape:window-width="1920"
     inkscape:pageshadow="2"
     inkscape:pageopacity="0"
     guidetolerance="10"
     gridtolerance="10000"
     objecttolerance="10000"
     borderopacity="1"
     bordercolor="#666666"
     pagecolor="#ffffff" />
  <title
     id="title863">Emblem only</title>
  <path
     id="path865"
     style="fill:#1e88e5"
     d="m 159.66502,46.86 -34.69,-26.28 c 0,0 -11.46,-8.73 -19.93,-13 -8.470001,-4.27 -16.000001,-6.48 -21.280001,-7 -5.28,-0.52 -8.55,-0.58 -8.55,-0.58 h -11 a 23.43,23.43 0 0 0 0,46.86 h 11 a 22.36,22.36 0 0 1 3.37,0.74 c 2.11,0.63 4,1.53 9,4.74 1.46,0.93 1.46,0.93 5.5,3.64 l 31.890001,23.81 24.63,-15.58 29,-2.68 1.89,-5.17 V 56 c -8.54,-1.22 -20.83,-9.14 -20.83,-9.14 z" />
  <path
     id="path867"
     style="fill:#1e88e5"
     d="m 180.43502,56 v 0.4 l 0.14,-0.38 z" />
  <path
     id="path869"
     style="fill:#1e88e5"
     d="m 178.60502,99 -28,-4.41 -25.63,-14.8 -31.790001,24.75 c -4,2.71 -4,2.71 -5.5,3.64 -5,3.21 -6.91,4.11 -9,4.74 a 22.36,22.36 0 0 1 -3.37,0.74 h -11 a 23.43,23.43 0 1 0 0,46.86 h 11 c 0,0 3.31,-0.09 8.56,-0.6 5.25,-0.51 12.79,-2.77 21.270001,-7 8.48,-4.23 19.93,-13 19.93,-13 l 34.69,-26.28 c 0,0 12.21,-9 20.69,-10.18 v -0.34 z" />
  <path
     id="path871"
     style="fill:#1e88e5"
     d="m 180.43502,103.14 v 0.34 h 0.14 z" />
  <path
     id="path873"
     style="fill:#42a5f5"
     d="m 232.98502,79.71 a 23.73,23.73 0 0 1 -23.73,23.73 h -28.82 v -0.08 c -28.34,0.07 -55.46,-23.57 -55.46,-23.57 0,0 27.12,-23.46 55.46,-23.58 V 56 h 28.82 a 23.72,23.72 0 0 1 23.73,23.7 v 0 z" />
  <path
     id="path875"
     style="fill:#c0392b"
     d="m 114.08502,226.89 34.68,26.32 c 0,0 11.46,8.73 19.93,13 8.47,4.27 16,6.48 21.27,7 5.27,0.52 8.56,0.6 8.56,0.6 h 11 a 23.43,23.43 0 1 0 0,-46.86 h -11 a 22.36,22.36 0 0 1 -3.37,-0.74 c -2.11,-0.63 -4,-1.53 -9,-4.74 -1.46,-0.93 -1.46,-0.93 -5.5,-3.64 l -31.89,-23.83 -24.6,15.54 -29.000001,2.67 -1.89,5.17 v 0.4 c 8.490001,1.22 20.810001,9.11 20.810001,9.11 z" />
  <path
     id="path877"
     style="fill:#1e88e5"
     d="m 93.325019,217.8 v -0.4 l -0.14,0.38 z" />
  <path
     id="path879"
     style="fill:#c0392b"
     d="m 95.125019,174.76 28.060001,4.45 25.58,14.79 31.83,-24.79 c 4,-2.71 4,-2.71 5.5,-3.64 5,-3.21 6.91,-4.11 9,-4.74 a 22.36,22.36 0 0 1 3.37,-0.74 h 11 a 23.43,23.43 0 0 0 0,-46.86 h -11 c 0,0 -3.31,0.09 -8.56,0.6 -5.25,0.51 -12.79,2.77 -21.27,7 -8.48,4.23 -19.93,13 -19.93,13 l -34.7,26.26 c 0,0 -12.21,9 -20.690001,10.18 v 0.34 z" />
  <path
     id="path881"
     style="fill:#1e88e5"
     d="m 93.325019,170.61 v -0.34 h -0.14 z" />
  <path
     id="path883"
     style="fill:#e74c3c"
     d="m 40.765019,194 a 23.73,23.73 0 0 1 23.73,-23.73 h 28.82 v 0.08 C 121.65502,170.32 148.76502,194 148.76502,194 c 0,0 -27.12,23.46 -55.460001,23.59 v 0.22 h -28.81 a 23.72,23.72 0 0 1 -23.73,-23.75 c 0,0 0,-0.06 0,-0.06 z" />
</svg>
