<svg xmlns="http://www.w3.org/2000/svg" viewBox="0 0 192.22 273.75"><title>Emblem only</title><path d="M118.9,46.86L84.21,20.58s-11.46-8.73-19.93-13S48.28,1.1,43,.58,34.45,0,34.45,0h-11a23.43,23.43,0,0,0,0,46.86h11a22.36,22.36,0,0,1,3.37.74c2.11,0.63,4,1.53,9,4.74,1.46,0.93,1.46.93,5.5,3.64L84.21,79.79l24.63-15.58,29-2.68,1.89-5.17V56C131.19,54.78,118.9,46.86,118.9,46.86Z" style="fill:#1e88e5"/><path d="M139.67,56v0.4l0.14-.38Z" style="fill:#1e88e5"/><path d="M137.84,99l-28-4.41L84.21,79.79,52.42,104.54c-4,2.71-4,2.71-5.5,3.64-5,3.21-6.91,4.11-9,4.74a22.36,22.36,0,0,1-3.37.74h-11a23.43,23.43,0,1,0,0,46.86h11s3.31-.09,8.56-0.6,12.79-2.77,21.27-7,19.93-13,19.93-13L119,113.64s12.21-9,20.69-10.18v-0.34Z" style="fill:#1e88e5"/><path d="M139.67,103.14v0.34h0.14Z" style="fill:#1e88e5"/><path d="M192.22,79.71a23.73,23.73,0,0,1-23.73,23.73H139.67v-0.08c-28.34.07-55.46-23.57-55.46-23.57s27.12-23.46,55.46-23.58V56h28.82A23.72,23.72,0,0,1,192.22,79.7h0Z" style="fill:#42a5f5"/><path d="M73.32,226.89L108,253.21s11.46,8.73,19.93,13,16,6.48,21.27,7,8.56,0.6,8.56.6h11a23.43,23.43,0,1,0,0-46.86h-11a22.36,22.36,0,0,1-3.37-.74c-2.11-.63-4-1.53-9-4.74-1.46-.93-1.46-0.93-5.5-3.64L108,194,83.4,209.54l-29,2.67-1.89,5.17v0.4C61,219,73.32,226.89,73.32,226.89Z" style="fill:#c0392b"/><path d="M52.56,217.8v-0.4l-0.14.38Z" style="fill:#1e88e5"/><path d="M54.36,174.76l28.06,4.45L108,194l31.83-24.79c4-2.71,4-2.71,5.5-3.64,5-3.21,6.91-4.11,9-4.74a22.36,22.36,0,0,1,3.37-.74h11a23.43,23.43,0,0,0,0-46.86h-11s-3.31.09-8.56,0.6-12.79,2.77-21.27,7-19.93,13-19.93,13L73.24,160.09s-12.21,9-20.69,10.18v0.34Z" style="fill:#c0392b"/><path d="M52.56,170.61v-0.34H52.42Z" style="fill:#1e88e5"/><path d="M0,194a23.73,23.73,0,0,1,23.73-23.73H52.55v0.08C80.89,170.32,108,194,108,194s-27.12,23.46-55.46,23.59v0.22H23.73A23.72,23.72,0,0,1,0,194.06S0,194,0,194Z" style="fill:#e74c3c"/></svg>